<svg xmlns="http://www.w3.org/2000/svg" xmlns:xlink="http://www.w3.org/1999/xlink" viewBox="0 0 121.94 111.59">
<defs><style>.cls-1{fill:#575756;}.cls-10,.cls-2,.cls-3,.cls-4,.cls-5,.cls-6,.cls-7,.cls-8,.cls-9{fill:none;stroke-miterlimit:10;stroke-width:4px;}.cls-2,.cls-3,.cls-4,.cls-5,.cls-6,.cls-7,.cls-8,.cls-9{stroke-linecap:round;}.cls-2{stroke:url(#linear-gradient);}.cls-3{stroke:url(#linear-gradient-2);}.cls-4{stroke:url(#linear-gradient-3);}.cls-5{stroke:url(#linear-gradient-4);}.cls-6{stroke:url(#linear-gradient-5);}.cls-7{stroke:url(#linear-gradient-6);}.cls-8{stroke:url(#linear-gradient-7);}.cls-9{stroke:url(#linear-gradient-8);}.cls-10{stroke:#dadada;}</style>

<linearGradient id="linear-gradient" x1="68.36" y1="82.52" x2="82.93" y2="84.06" gradientUnits="userSpaceOnUse"><stop offset="0" stop-color="#3c3c3b"/><stop offset="0.12" stop-color="#656564"/><stop offset="0.26" stop-color="#8e8e8e"/><stop offset="0.4" stop-color="#b1b1b0"/><stop offset="0.54" stop-color="#cbcbcb"/><stop offset="0.69" stop-color="#dedede"/><stop offset="0.84" stop-color="#e9e9e9"/><stop offset="1" stop-color="#ededed"/></linearGradient>

<linearGradient id="linear-gradient-2" x1="66.02" y1="104.67" x2="80.58" y2="106.21" xlink:href="#linear-gradient"/>

<linearGradient id="linear-gradient-3" x1="51.19" y1="82.52" x2="65.76" y2="84.06" xlink:href="#linear-gradient"/>

<linearGradient id="linear-gradient-4" x1="48.85" y1="104.67" x2="63.41" y2="106.21" xlink:href="#linear-gradient"/>

<linearGradient id="linear-gradient-5" x1="34.02" y1="82.52" x2="48.59" y2="84.06" xlink:href="#linear-gradient"/>

<linearGradient id="linear-gradient-6" x1="31.68" y1="104.67" x2="46.24" y2="106.21" xlink:href="#linear-gradient"/>

<linearGradient id="linear-gradient-7" x1="16.86" y1="82.52" x2="31.42" y2="84.06" xlink:href="#linear-gradient"/>

<linearGradient id="linear-gradient-8" x1="14.51" y1="104.67" x2="29.07" y2="106.21" xlink:href="#linear-gradient"/>
</defs>
<g id="Layer_2" data-name="Layer 2"><g id="Layer_1-2" data-name="Layer 1">
<circle class="cls-1" cx="118.24" cy="65.66" r="3.46"/>
<path class="cls-1" d="M120.18,59.84H116.3Q115.42,46,114.54,32.2h7.4Q121.06,46,120.18,59.84Z"/>
<line class="cls-2" x1="81.44" y1="79.14" x2="77.28" y2="88.23"/>
<line class="cls-3" x1="71.67" y1="100.5" x2="67.51" y2="109.59"/>
<line class="cls-4" x1="64.27" y1="79.14" x2="60.11" y2="88.23"/>
<line class="cls-5" x1="54.5" y1="100.5" x2="50.34" y2="109.59"/>
<line class="cls-6" x1="47.1" y1="79.14" x2="42.94" y2="88.23"/>
<line class="cls-7" x1="37.33" y1="100.5" x2="33.17" y2="109.59"/>
<line class="cls-8" x1="29.93" y1="79.14" x2="25.77" y2="88.23"/>
<line class="cls-9" x1="20.16" y1="100.5" x2="16" y2="109.59"/>
<path class="cls-10" d="M103.36,45.46c0,13.15-11,23.66-24.16,23.66h-53c-13.89,0-25.06-11.37-24.09-25.23A23.56,23.56,0,0,1,25.56,22a23.24,23.24,0,0,1,8.12,1.44,2.79,2.79,0,0,0,3.68-2.1,23.55,23.55,0,0,1,46.2-.74,2.79,2.79,0,0,0,2.06,2.12A23.57,23.57,0,0,1,103.36,45.46Z"/>
</g></g>
</svg>