<svg xmlns="http://www.w3.org/2000/svg" xmlns:xlink="http://www.w3.org/1999/xlink" viewBox="0 0 176.57 62.28"><defs><style>.cls-1,.cls-3,.cls-4,.cls-5{fill:none;stroke-miterlimit:10;}.cls-1,.cls-5{stroke:#dadada;stroke-linecap:round;}.cls-1,.cls-3,.cls-4{stroke-width:2px;}.cls-2{fill:url(#linear-gradient);}.cls-3,.cls-4{stroke:#878787;}.cls-4{stroke-dasharray:4.68 5.62;}.cls-5{stroke-width:4px;}</style><linearGradient id="linear-gradient" x1="0.26" y1="48.28" x2="176.57" y2="48.28" gradientUnits="userSpaceOnUse"><stop offset="0" stop-color="#575756"/><stop offset="0.02" stop-color="#5b5b5a"/><stop offset="0.35" stop-color="#919191"/><stop offset="0.64" stop-color="#b9b9b8"/><stop offset="0.86" stop-color="#d1d1d1"/><stop offset="1" stop-color="#dadada"/></linearGradient></defs><g id="Layer_2" data-name="Layer 2"><g id="Layer_1-2" data-name="Layer 1"><line class="cls-1" x1="108.54" y1="24.53" x2="108.54" y2="13.27"/><line class="cls-1" x1="100.93" y1="24.53" x2="100.93" y2="13.27"/><rect class="cls-2" x="0.26" y="34.28" width="176.31" height="28.01" rx="6"/><line class="cls-3" x1="146.61" y1="20.78" x2="146.61" y2="23.28"/><line class="cls-4" x1="146.62" y1="28.9" x2="146.63" y2="56.97"/><line class="cls-3" x1="146.64" y1="59.78" x2="146.64" y2="62.28"/><line class="cls-5" x1="2" y1="24.53" x2="2" y2="2"/><line class="cls-5" x1="146.6" y1="24.53" x2="146.6" y2="2"/><line class="cls-1" x1="138.99" y1="24.53" x2="138.99" y2="13.27"/><line class="cls-1" x1="131.38" y1="24.53" x2="131.38" y2="13.27"/><line class="cls-1" x1="123.76" y1="24.53" x2="123.76" y2="13.27"/><line class="cls-1" x1="116.15" y1="24.53" x2="116.15" y2="13.27"/><line class="cls-1" x1="93.32" y1="24.53" x2="93.32" y2="13.27"/><line class="cls-1" x1="85.71" y1="24.53" x2="85.71" y2="13.27"/><line class="cls-1" x1="78.1" y1="24.53" x2="78.1" y2="13.27"/><line class="cls-1" x1="70.49" y1="24.53" x2="70.49" y2="13.27"/><line class="cls-1" x1="62.88" y1="24.53" x2="62.88" y2="13.27"/><line class="cls-1" x1="55.27" y1="24.53" x2="55.27" y2="13.27"/><line class="cls-1" x1="47.66" y1="24.53" x2="47.66" y2="13.27"/><line class="cls-1" x1="40.05" y1="24.53" x2="40.05" y2="13.27"/><line class="cls-1" x1="32.44" y1="24.53" x2="32.44" y2="13.27"/><line class="cls-1" x1="24.83" y1="24.53" x2="24.83" y2="13.27"/><line class="cls-1" x1="17.22" y1="24.53" x2="17.22" y2="13.27"/><line class="cls-1" x1="9.61" y1="24.53" x2="9.61" y2="13.27"/></g></g></svg>